<?xml version="1.0" encoding="UTF-8" standalone="no"?>
<!-- Generator: Adobe Illustrator 26.0.2, SVG Export Plug-In . SVG Version: 6.00 Build 0)  -->

<svg
   version="1.1"
   id="_x23_Layer_1"
   x="0px"
   y="0px"
   viewBox="0 0 1400 600"
   xml:space="preserve"
   sodipodi:docname="logo2.svg"
   inkscape:version="1.2.1 (9c6d41e410, 2022-07-14)"
   width="1400"
   height="600"
   xmlns:inkscape="http://www.inkscape.org/namespaces/inkscape"
   xmlns:sodipodi="http://sodipodi.sourceforge.net/DTD/sodipodi-0.dtd"
   xmlns="http://www.w3.org/2000/svg"
   xmlns:svg="http://www.w3.org/2000/svg"><defs
   id="defs18" /><sodipodi:namedview
   id="namedview16"
   pagecolor="#ffffff"
   bordercolor="#000000"
   borderopacity="0.25"
   inkscape:showpageshadow="2"
   inkscape:pageopacity="0.0"
   inkscape:pagecheckerboard="0"
   inkscape:deskcolor="#d1d1d1"
   showgrid="false"
   inkscape:zoom="0.35145391"
   inkscape:cx="246.12047"
   inkscape:cy="202.01795"
   inkscape:window-width="1920"
   inkscape:window-height="1017"
   inkscape:window-x="1912"
   inkscape:window-y="-8"
   inkscape:window-maximized="1"
   inkscape:current-layer="_x23_Layer_1" />
<style
   type="text/css"
   id="style11">
	.st0{fill-rule:evenodd;clip-rule:evenodd;fill:#E7290F;}
</style>
<path
   class="st0"
   d="m 998.52529,111.29159 c 0,23.03754 0,209.51005 0,232.14743 8.99861,0 29.41191,0 38.70211,0 0,-22.63738 0,-209.10989 0,-232.14743 -9.2902,0 -29.7035,0 -38.70211,0 z m -33.28635,380.31933 v -32.92708 c 6.91558,-2.05796 12.28972,-7.43147 12.28972,-20.17929 0,-14.00545 -5.08253,-18.92164 -12.28972,-20.97959 V 405.1773 c 12.28972,2.4581 22.20478,10.68989 22.20478,32.12679 0,18.52149 -8.41532,31.66945 -21.91314,33.32724 l 27.57892,53.50653 H 981.40303 Z M 1076.5128,111.29159 c 0,23.03754 0,164.2353 0,164.2353 0,67.51197 28.4955,67.91213 53.9913,67.91213 0,0 197.6767,0 212.3827,0 0,-13.6053 0,-31.66947 0,-44.87459 -14.706,0 -227.3802,-0.40017 -227.3802,-0.40017 0,0 0,-163.37782 0,-186.87267 -9.8735,0 -29.3703,0 -38.9938,0 z m 50.9919,412.78911 h -9.5819 V 404.31983 h 9.5819 z m 191.6776,-93.40776 c -6.9156,-9.88956 -16.4974,-16.0634 -26.4125,-16.0634 -19.4968,0 -35.0777,23.4377 -35.0777,49.39064 0,26.35311 15.5809,49.79079 35.0777,49.79079 9.9151,0 19.4969,-6.57398 26.4125,-16.06338 v 16.46354 c -7.4989,7.43147 -16.789,11.9475 -25.7876,11.9475 -24.5794,0 -45.576,-27.55357 -45.576,-61.33814 0,-34.58488 20.4134,-62.53861 45.576,-62.53861 9.5819,0 17.9971,4.11589 25.7876,11.94752 z M 965.23894,405.1773 v 12.34766 c -2.99951,-0.40014 -6.29065,-0.8003 -9.91506,-0.8003 h -2.70792 v 43.2168 h 2.99954 c 3.29114,0 6.58227,-0.40015 9.5818,-1.25762 v 32.92708 l -10.2067,-20.17927 h -2.41628 v 52.70621 h -9.91508 V 404.377 h 12.58133 c 3.4161,-0.0571 6.70725,0.343 9.99837,0.8003 z M 602.00545,110.89143 c 0,19.77912 0,93.86508 0,93.86508 H 401.03766 c 0,0 0,-74.08596 0,-93.86508 -9.91509,0 -29.41198,0 -38.99378,0 0,22.63738 0,209.91021 0,232.54759 9.58181,0 29.07869,0 38.99378,0 0,-19.77912 0,-94.26524 0,-94.26524 h 200.96779 c 0,0 0,74.48612 0,94.26524 9.5818,0 29.07869,0 38.99377,0 0,-22.63738 0,-209.91021 0,-232.54759 -9.91508,0 -29.41197,0 -38.99377,0 z m -505.41905,0 c -8.41532,0.80032 -52.78322,0.40016 -52.78322,77.8017 v 86.43361 c 0,66.65449 44.9928,68.31228 50.99184,68.31228 0,0 213.2575,0 227.9635,0 0,-13.6053 0,-30.46901 0,-44.01713 -14.706,0 -239.96158,0 -239.96158,0 V 155.36588 c 0,0 225.25558,0 239.96158,0 0,-11.54735 0,-35.38519 0,-44.47445 -14.706,0 -225.58888,0 -226.17212,0 z m 627.48284,-0.45731 c 0,0 -44.07627,-2.85825 -44.07627,69.16975 v 95.06555 c 0,69.16974 44.07627,68.71244 44.07627,68.71244 0,0 220.46469,0 235.17068,0 0,-13.60531 0,-30.06885 0,-43.61697 -14.99761,0 -239.96159,0 -239.96159,0 v -50.19095 c 0,0 225.2556,0 239.96159,0 0,-13.60528 0,-31.26931 0,-45.27476 -14.70599,0 -239.96159,0.40016 -239.96159,0.40016 v -48.99048 c 0,0 224.96398,0 239.96159,0 0,-13.60529 0,-31.26929 0,-45.27474 -14.70599,0 -235.17068,0 -235.17068,0 z M 64.17493,404.31983 h 45.28441 v 12.34766 H 74.04835 v 35.78534 h 34.49447 v 12.34766 H 74.04835 v 46.93255 h 35.41099 V 524.0807 H 64.17493 Z m 183.88722,107.41321 h 23.99616 V 524.0807 H 238.14707 V 404.31983 h 9.91508 z M 396.53836,404.31983 h 45.28442 v 12.34766 h -35.70262 v 35.78534 h 34.49447 v 12.34766 h -34.49447 v 46.93255 h 35.70262 v 12.34766 h -45.28442 z m 241.16972,26.35311 c -6.91556,-9.88956 -16.49736,-16.0634 -26.70406,-16.0634 -19.20527,0 -35.07772,23.4377 -35.07772,49.39064 0,26.35311 15.91412,49.79079 35.41101,49.79079 9.91506,0 19.49686,-6.57398 26.41241,-16.06338 v 16.46354 c -7.49878,7.43147 -16.78896,11.9475 -26.07915,11.9475 -24.57939,0 -45.2844,-27.55357 -45.2844,-61.33814 0,-34.58488 20.4134,-62.53861 45.2844,-62.53861 9.5818,0 18.28876,4.11589 26.07915,11.94752 v 16.46354 z m 159.26616,93.40776 h -9.5818 V 416.66749 h -20.99663 v -12.34766 h 51.90834 v 12.34766 H 797.01591 V 524.0807 Z"
   id="path13"
   style="stroke-width:4.88005;fill:#ffffff;fill-opacity:1" />
</svg>
